<mxfile host="app.diagrams.net" modified="2024-01-18T05:54:29.983Z" agent="Mozilla/5.0 (Windows NT 10.0; Win64; x64) AppleWebKit/537.36 (KHTML, like Gecko) Chrome/120.0.0.0 Safari/537.36" etag="T-evEmMya54lyg_i-YNR" version="21.8.0" type="google">
  <diagram name="Page-1" id="kcKSFb7cRxMt9rGfg3i3">
    <mxGraphModel grid="0" page="0" gridSize="10" guides="1" tooltips="1" connect="1" arrows="1" fold="1" pageScale="1" pageWidth="850" pageHeight="1100" math="0" shadow="0">
      <root>
        <mxCell id="0" />
        <mxCell id="1" parent="0" />
        <mxCell id="eMn49xgFyOWpqg5cdWTc-47" value="" style="rounded=0;whiteSpace=wrap;html=1;" vertex="1" parent="1">
          <mxGeometry x="79" y="-330" width="949" height="1271" as="geometry" />
        </mxCell>
        <mxCell id="GEP3kYFPJ8vS6Psl8OIu-1" value="Resident" style="shape=umlActor;verticalLabelPosition=bottom;verticalAlign=top;html=1;outlineConnect=0;" vertex="1" parent="1">
          <mxGeometry x="-106" y="22" width="69" height="151" as="geometry" />
        </mxCell>
        <mxCell id="eMn49xgFyOWpqg5cdWTc-1" value="Tourist" style="shape=umlActor;verticalLabelPosition=bottom;verticalAlign=top;html=1;outlineConnect=0;" vertex="1" parent="1">
          <mxGeometry x="1168" y="-11" width="96" height="160" as="geometry" />
        </mxCell>
        <mxCell id="eMn49xgFyOWpqg5cdWTc-2" value="Administrative&lt;br&gt;" style="shape=umlActor;verticalLabelPosition=bottom;verticalAlign=top;html=1;outlineConnect=0;" vertex="1" parent="1">
          <mxGeometry x="1215" y="630" width="100" height="135" as="geometry" />
        </mxCell>
        <mxCell id="eMn49xgFyOWpqg5cdWTc-5" value="Get Notification to put house waste on dedicated spot" style="rounded=1;whiteSpace=wrap;html=1;" vertex="1" parent="1">
          <mxGeometry x="161" y="-187" width="311" height="43" as="geometry" />
        </mxCell>
        <mxCell id="eMn49xgFyOWpqg5cdWTc-7" value="Can see available public transport list and their time schedule" style="rounded=1;whiteSpace=wrap;html=1;" vertex="1" parent="1">
          <mxGeometry x="159" y="-131" width="311" height="43" as="geometry" />
        </mxCell>
        <mxCell id="vUEyfl4skyFPWTMdxFMj-6" value="" style="endArrow=classic;html=1;rounded=0;entryX=0;entryY=0.5;entryDx=0;entryDy=0;" edge="1" parent="1" target="eMn49xgFyOWpqg5cdWTc-5">
          <mxGeometry width="50" height="50" relative="1" as="geometry">
            <mxPoint x="-20" y="51.25" as="sourcePoint" />
            <mxPoint x="156" y="-53" as="targetPoint" />
          </mxGeometry>
        </mxCell>
        <mxCell id="vUEyfl4skyFPWTMdxFMj-7" value="" style="endArrow=classic;html=1;rounded=0;entryX=0;entryY=0.5;entryDx=0;entryDy=0;" edge="1" parent="1" target="eMn49xgFyOWpqg5cdWTc-7">
          <mxGeometry width="50" height="50" relative="1" as="geometry">
            <mxPoint x="-18" y="57" as="sourcePoint" />
            <mxPoint x="171" y="-16" as="targetPoint" />
          </mxGeometry>
        </mxCell>
        <mxCell id="eMn49xgFyOWpqg5cdWTc-10" value="Can buy ticket if available" style="rounded=1;whiteSpace=wrap;html=1;" vertex="1" parent="1">
          <mxGeometry x="159" y="-78" width="311" height="43" as="geometry" />
        </mxCell>
        <mxCell id="eMn49xgFyOWpqg5cdWTc-11" value="Can make payment for services" style="rounded=1;whiteSpace=wrap;html=1;" vertex="1" parent="1">
          <mxGeometry x="161" y="76" width="311" height="43" as="geometry" />
        </mxCell>
        <mxCell id="vUEyfl4skyFPWTMdxFMj-8" value="" style="endArrow=classic;html=1;rounded=0;entryX=0;entryY=0.5;entryDx=0;entryDy=0;" edge="1" parent="1" target="eMn49xgFyOWpqg5cdWTc-10">
          <mxGeometry width="50" height="50" relative="1" as="geometry">
            <mxPoint x="-15" y="64" as="sourcePoint" />
            <mxPoint x="171" y="55" as="targetPoint" />
          </mxGeometry>
        </mxCell>
        <mxCell id="eMn49xgFyOWpqg5cdWTc-12" value="Can see the list of available municipal services based on location." style="rounded=1;whiteSpace=wrap;html=1;" vertex="1" parent="1">
          <mxGeometry x="161" y="132" width="311" height="43" as="geometry" />
        </mxCell>
        <mxCell id="vUEyfl4skyFPWTMdxFMj-9" value="" style="endArrow=classic;html=1;rounded=0;entryX=0;entryY=0.25;entryDx=0;entryDy=0;" edge="1" parent="1" target="eMn49xgFyOWpqg5cdWTc-11">
          <mxGeometry width="50" height="50" relative="1" as="geometry">
            <mxPoint x="-16" y="69" as="sourcePoint" />
            <mxPoint x="171" y="111" as="targetPoint" />
          </mxGeometry>
        </mxCell>
        <mxCell id="eMn49xgFyOWpqg5cdWTc-13" value="Can fill up the application for available municipal services" style="rounded=1;whiteSpace=wrap;html=1;" vertex="1" parent="1">
          <mxGeometry x="163" y="186" width="311" height="43" as="geometry" />
        </mxCell>
        <mxCell id="vUEyfl4skyFPWTMdxFMj-10" value="" style="endArrow=classic;html=1;rounded=0;entryX=0;entryY=0.25;entryDx=0;entryDy=0;" edge="1" parent="1" target="eMn49xgFyOWpqg5cdWTc-12">
          <mxGeometry width="50" height="50" relative="1" as="geometry">
            <mxPoint x="-16" y="74" as="sourcePoint" />
            <mxPoint x="171" y="155" as="targetPoint" />
          </mxGeometry>
        </mxCell>
        <mxCell id="vUEyfl4skyFPWTMdxFMj-11" value="" style="endArrow=classic;html=1;rounded=0;entryX=0;entryY=0.5;entryDx=0;entryDy=0;" edge="1" parent="1" target="eMn49xgFyOWpqg5cdWTc-13">
          <mxGeometry width="50" height="50" relative="1" as="geometry">
            <mxPoint x="-16" y="82" as="sourcePoint" />
            <mxPoint x="171" y="210" as="targetPoint" />
          </mxGeometry>
        </mxCell>
        <mxCell id="eMn49xgFyOWpqg5cdWTc-14" value="Can see the status of application after applying for an available municipal service" style="rounded=1;whiteSpace=wrap;html=1;" vertex="1" parent="1">
          <mxGeometry x="163" y="241" width="311" height="43" as="geometry" />
        </mxCell>
        <mxCell id="vUEyfl4skyFPWTMdxFMj-12" value="" style="endArrow=classic;html=1;rounded=0;entryX=0;entryY=0.5;entryDx=0;entryDy=0;" edge="1" parent="1" target="eMn49xgFyOWpqg5cdWTc-14">
          <mxGeometry width="50" height="50" relative="1" as="geometry">
            <mxPoint x="-17" y="90" as="sourcePoint" />
            <mxPoint x="171" y="276" as="targetPoint" />
          </mxGeometry>
        </mxCell>
        <mxCell id="eMn49xgFyOWpqg5cdWTc-15" value="Can see the list of available houses for renting" style="rounded=1;whiteSpace=wrap;html=1;" vertex="1" parent="1">
          <mxGeometry x="163" y="294" width="311" height="43" as="geometry" />
        </mxCell>
        <mxCell id="eMn49xgFyOWpqg5cdWTc-16" value="Can get notification for running and upcoming vaccination campaigns" style="rounded=1;whiteSpace=wrap;html=1;" vertex="1" parent="1">
          <mxGeometry x="161" y="409" width="311" height="43" as="geometry" />
        </mxCell>
        <mxCell id="eMn49xgFyOWpqg5cdWTc-17" value="Can apply for getting vaccinated" style="rounded=1;whiteSpace=wrap;html=1;" vertex="1" parent="1">
          <mxGeometry x="161" y="464" width="311" height="43" as="geometry" />
        </mxCell>
        <mxCell id="vUEyfl4skyFPWTMdxFMj-13" value="" style="endArrow=classic;html=1;rounded=0;entryX=0;entryY=0.5;entryDx=0;entryDy=0;" edge="1" parent="1" target="eMn49xgFyOWpqg5cdWTc-15">
          <mxGeometry width="50" height="50" relative="1" as="geometry">
            <mxPoint x="-19" y="97" as="sourcePoint" />
            <mxPoint x="171" y="331" as="targetPoint" />
          </mxGeometry>
        </mxCell>
        <mxCell id="eMn49xgFyOWpqg5cdWTc-18" value="Can download vaccination certificates if vaccinated" style="rounded=1;whiteSpace=wrap;html=1;" vertex="1" parent="1">
          <mxGeometry x="161" y="519" width="311" height="43" as="geometry" />
        </mxCell>
        <mxCell id="vUEyfl4skyFPWTMdxFMj-14" value="" style="endArrow=classic;html=1;rounded=0;entryX=0;entryY=0.5;entryDx=0;entryDy=0;" edge="1" parent="1" target="eMn49xgFyOWpqg5cdWTc-16">
          <mxGeometry width="50" height="50" relative="1" as="geometry">
            <mxPoint x="-19" y="107" as="sourcePoint" />
            <mxPoint x="171" y="386" as="targetPoint" />
          </mxGeometry>
        </mxCell>
        <mxCell id="vUEyfl4skyFPWTMdxFMj-15" value="" style="endArrow=classic;html=1;rounded=0;entryX=0;entryY=0.5;entryDx=0;entryDy=0;" edge="1" parent="1" target="eMn49xgFyOWpqg5cdWTc-17">
          <mxGeometry width="50" height="50" relative="1" as="geometry">
            <mxPoint x="-21" y="120" as="sourcePoint" />
            <mxPoint x="171" y="441" as="targetPoint" />
          </mxGeometry>
        </mxCell>
        <mxCell id="eMn49xgFyOWpqg5cdWTc-19" value="Send Messages in the discussion thread" style="rounded=1;whiteSpace=wrap;html=1;" vertex="1" parent="1">
          <mxGeometry x="161" y="574" width="311" height="43" as="geometry" />
        </mxCell>
        <mxCell id="vUEyfl4skyFPWTMdxFMj-16" value="" style="endArrow=classic;html=1;rounded=0;entryX=0;entryY=0.5;entryDx=0;entryDy=0;" edge="1" parent="1" target="eMn49xgFyOWpqg5cdWTc-18">
          <mxGeometry width="50" height="50" relative="1" as="geometry">
            <mxPoint x="-25" y="130" as="sourcePoint" />
            <mxPoint x="171" y="496" as="targetPoint" />
          </mxGeometry>
        </mxCell>
        <mxCell id="vUEyfl4skyFPWTMdxFMj-17" value="" style="endArrow=classic;html=1;rounded=0;entryX=0;entryY=0.5;entryDx=0;entryDy=0;" edge="1" parent="1" target="eMn49xgFyOWpqg5cdWTc-19">
          <mxGeometry width="50" height="50" relative="1" as="geometry">
            <mxPoint x="-28" y="145" as="sourcePoint" />
            <mxPoint x="171" y="551" as="targetPoint" />
          </mxGeometry>
        </mxCell>
        <mxCell id="eMn49xgFyOWpqg5cdWTc-20" value="Can browse discussion thread" style="rounded=1;whiteSpace=wrap;html=1;" vertex="1" parent="1">
          <mxGeometry x="161" y="628" width="311" height="43" as="geometry" />
        </mxCell>
        <mxCell id="eMn49xgFyOWpqg5cdWTc-21" value="Can submit complains to municipality" style="rounded=1;whiteSpace=wrap;html=1;" vertex="1" parent="1">
          <mxGeometry x="161" y="686" width="311" height="43" as="geometry" />
        </mxCell>
        <mxCell id="vUEyfl4skyFPWTMdxFMj-18" value="" style="endArrow=classic;html=1;rounded=0;entryX=0;entryY=0.5;entryDx=0;entryDy=0;" edge="1" parent="1" target="eMn49xgFyOWpqg5cdWTc-20">
          <mxGeometry width="50" height="50" relative="1" as="geometry">
            <mxPoint x="-32" y="159" as="sourcePoint" />
            <mxPoint x="171" y="605" as="targetPoint" />
          </mxGeometry>
        </mxCell>
        <mxCell id="vUEyfl4skyFPWTMdxFMj-19" value="" style="endArrow=classic;html=1;rounded=0;entryX=0;entryY=0.5;entryDx=0;entryDy=0;" edge="1" parent="1" target="eMn49xgFyOWpqg5cdWTc-21">
          <mxGeometry width="50" height="50" relative="1" as="geometry">
            <mxPoint x="-32" y="178" as="sourcePoint" />
            <mxPoint x="171" y="660" as="targetPoint" />
          </mxGeometry>
        </mxCell>
        <mxCell id="eMn49xgFyOWpqg5cdWTc-24" value="Can see applications for house rent if the resident is landlord" style="rounded=1;whiteSpace=wrap;html=1;" vertex="1" parent="1">
          <mxGeometry x="161" y="351" width="311" height="43" as="geometry" />
        </mxCell>
        <mxCell id="vUEyfl4skyFPWTMdxFMj-20" value="" style="endArrow=classic;html=1;rounded=0;entryX=0;entryY=0.5;entryDx=0;entryDy=0;" edge="1" parent="1" target="eMn49xgFyOWpqg5cdWTc-24">
          <mxGeometry width="50" height="50" relative="1" as="geometry">
            <mxPoint x="-5" y="124" as="sourcePoint" />
            <mxPoint x="173" y="326" as="targetPoint" />
          </mxGeometry>
        </mxCell>
        <mxCell id="eMn49xgFyOWpqg5cdWTc-25" value="Can see the status of waste pickup points" style="rounded=1;whiteSpace=wrap;html=1;" vertex="1" parent="1">
          <mxGeometry x="638" y="845" width="311" height="43" as="geometry" />
        </mxCell>
        <mxCell id="eMn49xgFyOWpqg5cdWTc-26" value="Can make available and unavailable public transport" style="rounded=1;whiteSpace=wrap;html=1;" vertex="1" parent="1">
          <mxGeometry x="638" y="787" width="311" height="43" as="geometry" />
        </mxCell>
        <mxCell id="eMn49xgFyOWpqg5cdWTc-27" value="Can see the payment status of citizens for municipal bills" style="rounded=1;whiteSpace=wrap;html=1;" vertex="1" parent="1">
          <mxGeometry x="638" y="729" width="311" height="43" as="geometry" />
        </mxCell>
        <mxCell id="vUEyfl4skyFPWTMdxFMj-22" value="" style="endArrow=classic;html=1;rounded=0;entryX=1;entryY=0.5;entryDx=0;entryDy=0;" edge="1" parent="1" target="eMn49xgFyOWpqg5cdWTc-25">
          <mxGeometry width="50" height="50" relative="1" as="geometry">
            <mxPoint x="1203" y="763" as="sourcePoint" />
            <mxPoint x="1096" y="634" as="targetPoint" />
          </mxGeometry>
        </mxCell>
        <mxCell id="eMn49xgFyOWpqg5cdWTc-28" value="Can start and stop campaigns for vaccination" style="rounded=1;whiteSpace=wrap;html=1;" vertex="1" parent="1">
          <mxGeometry x="633" y="581" width="311" height="43" as="geometry" />
        </mxCell>
        <mxCell id="vUEyfl4skyFPWTMdxFMj-23" value="" style="endArrow=classic;html=1;rounded=0;entryX=1;entryY=0.5;entryDx=0;entryDy=0;" edge="1" parent="1" target="eMn49xgFyOWpqg5cdWTc-26">
          <mxGeometry width="50" height="50" relative="1" as="geometry">
            <mxPoint x="1203" y="754" as="sourcePoint" />
            <mxPoint x="958" y="768" as="targetPoint" />
          </mxGeometry>
        </mxCell>
        <mxCell id="vUEyfl4skyFPWTMdxFMj-24" value="" style="endArrow=classic;html=1;rounded=0;entryX=1;entryY=0.5;entryDx=0;entryDy=0;" edge="1" parent="1" target="eMn49xgFyOWpqg5cdWTc-27">
          <mxGeometry width="50" height="50" relative="1" as="geometry">
            <mxPoint x="1198" y="748" as="sourcePoint" />
            <mxPoint x="958" y="710" as="targetPoint" />
          </mxGeometry>
        </mxCell>
        <mxCell id="eMn49xgFyOWpqg5cdWTc-29" value="Can start and stop campaigns for vaccination" style="rounded=1;whiteSpace=wrap;html=1;" vertex="1" parent="1">
          <mxGeometry x="630" y="523" width="311" height="43" as="geometry" />
        </mxCell>
        <mxCell id="eMn49xgFyOWpqg5cdWTc-30" value="Can update vaccination status for residents" style="rounded=1;whiteSpace=wrap;html=1;" vertex="1" parent="1">
          <mxGeometry x="630" y="465" width="311" height="43" as="geometry" />
        </mxCell>
        <mxCell id="eMn49xgFyOWpqg5cdWTc-31" value="Can insert &amp;amp; update information about tourist spots" style="rounded=1;whiteSpace=wrap;html=1;" vertex="1" parent="1">
          <mxGeometry x="630" y="407" width="311" height="43" as="geometry" />
        </mxCell>
        <mxCell id="vUEyfl4skyFPWTMdxFMj-25" value="" style="endArrow=classic;html=1;rounded=0;entryX=1;entryY=0.5;entryDx=0;entryDy=0;" edge="1" parent="1" target="eMn49xgFyOWpqg5cdWTc-28">
          <mxGeometry width="50" height="50" relative="1" as="geometry">
            <mxPoint x="1196" y="739" as="sourcePoint" />
            <mxPoint x="958" y="651" as="targetPoint" />
          </mxGeometry>
        </mxCell>
        <mxCell id="eMn49xgFyOWpqg5cdWTc-32" value="Can insert &amp;amp; update information about tourist spots" style="rounded=1;whiteSpace=wrap;html=1;" vertex="1" parent="1">
          <mxGeometry x="630" y="349" width="311" height="43" as="geometry" />
        </mxCell>
        <mxCell id="vUEyfl4skyFPWTMdxFMj-28" value="" style="endArrow=classic;html=1;rounded=0;entryX=1;entryY=0.5;entryDx=0;entryDy=0;" edge="1" parent="1" target="eMn49xgFyOWpqg5cdWTc-29">
          <mxGeometry width="50" height="50" relative="1" as="geometry">
            <mxPoint x="1190" y="727" as="sourcePoint" />
            <mxPoint x="956" y="593" as="targetPoint" />
          </mxGeometry>
        </mxCell>
        <mxCell id="vUEyfl4skyFPWTMdxFMj-29" value="" style="endArrow=classic;html=1;rounded=0;entryX=1;entryY=0.5;entryDx=0;entryDy=0;" edge="1" parent="1" target="eMn49xgFyOWpqg5cdWTc-30">
          <mxGeometry width="50" height="50" relative="1" as="geometry">
            <mxPoint x="1194" y="722" as="sourcePoint" />
            <mxPoint x="953" y="536" as="targetPoint" />
          </mxGeometry>
        </mxCell>
        <mxCell id="vUEyfl4skyFPWTMdxFMj-30" value="" style="endArrow=classic;html=1;rounded=0;entryX=1;entryY=0.5;entryDx=0;entryDy=0;" edge="1" parent="1" target="eMn49xgFyOWpqg5cdWTc-31">
          <mxGeometry width="50" height="50" relative="1" as="geometry">
            <mxPoint x="1190" y="706" as="sourcePoint" />
            <mxPoint x="953" y="478" as="targetPoint" />
          </mxGeometry>
        </mxCell>
        <mxCell id="vUEyfl4skyFPWTMdxFMj-31" value="" style="endArrow=classic;html=1;rounded=0;entryX=1;entryY=0.5;entryDx=0;entryDy=0;" edge="1" parent="1" target="eMn49xgFyOWpqg5cdWTc-32">
          <mxGeometry width="50" height="50" relative="1" as="geometry">
            <mxPoint x="1186" y="687" as="sourcePoint" />
            <mxPoint x="953" y="420" as="targetPoint" />
          </mxGeometry>
        </mxCell>
        <mxCell id="eMn49xgFyOWpqg5cdWTc-33" value="Can access surveillance cameras of the city" style="rounded=1;whiteSpace=wrap;html=1;" vertex="1" parent="1">
          <mxGeometry x="626" y="291" width="311" height="43" as="geometry" />
        </mxCell>
        <mxCell id="eMn49xgFyOWpqg5cdWTc-34" value="Can see and update status of citizens&#39; complains" style="rounded=1;whiteSpace=wrap;html=1;" vertex="1" parent="1">
          <mxGeometry x="626" y="233" width="311" height="43" as="geometry" />
        </mxCell>
        <mxCell id="vUEyfl4skyFPWTMdxFMj-32" value="" style="endArrow=classic;html=1;rounded=0;entryX=1;entryY=0.5;entryDx=0;entryDy=0;" edge="1" parent="1" target="eMn49xgFyOWpqg5cdWTc-33">
          <mxGeometry width="50" height="50" relative="1" as="geometry">
            <mxPoint x="1187" y="670" as="sourcePoint" />
            <mxPoint x="953" y="362" as="targetPoint" />
          </mxGeometry>
        </mxCell>
        <mxCell id="vUEyfl4skyFPWTMdxFMj-33" value="" style="endArrow=classic;html=1;rounded=0;entryX=1;entryY=0.5;entryDx=0;entryDy=0;" edge="1" parent="1" target="eMn49xgFyOWpqg5cdWTc-34">
          <mxGeometry width="50" height="50" relative="1" as="geometry">
            <mxPoint x="1188" y="657" as="sourcePoint" />
            <mxPoint x="949" y="304" as="targetPoint" />
          </mxGeometry>
        </mxCell>
        <mxCell id="eMn49xgFyOWpqg5cdWTc-35" value="Can generate reports of services provided" style="rounded=1;whiteSpace=wrap;html=1;" vertex="1" parent="1">
          <mxGeometry x="626" y="175" width="311" height="43" as="geometry" />
        </mxCell>
        <mxCell id="vUEyfl4skyFPWTMdxFMj-34" value="" style="endArrow=classic;html=1;rounded=0;entryX=1;entryY=0.5;entryDx=0;entryDy=0;" edge="1" parent="1" target="eMn49xgFyOWpqg5cdWTc-35">
          <mxGeometry width="50" height="50" relative="1" as="geometry">
            <mxPoint x="1188" y="639" as="sourcePoint" />
            <mxPoint x="949" y="246" as="targetPoint" />
          </mxGeometry>
        </mxCell>
        <mxCell id="eMn49xgFyOWpqg5cdWTc-38" value="Can see the details about available hotel room" style="rounded=1;whiteSpace=wrap;html=1;" vertex="1" parent="1">
          <mxGeometry x="628" y="40" width="311" height="43" as="geometry" />
        </mxCell>
        <mxCell id="eMn49xgFyOWpqg5cdWTc-37" value="Can see details about tourist spots" style="rounded=1;whiteSpace=wrap;html=1;" vertex="1" parent="1">
          <mxGeometry x="628" y="98" width="311" height="43" as="geometry" />
        </mxCell>
        <mxCell id="vUEyfl4skyFPWTMdxFMj-35" value="" style="endArrow=classic;html=1;rounded=0;entryX=1;entryY=0.5;entryDx=0;entryDy=0;" edge="1" parent="1" target="eMn49xgFyOWpqg5cdWTc-37">
          <mxGeometry width="50" height="50" relative="1" as="geometry">
            <mxPoint x="1144" y="89" as="sourcePoint" />
            <mxPoint x="1154" y="45" as="targetPoint" />
          </mxGeometry>
        </mxCell>
        <mxCell id="vUEyfl4skyFPWTMdxFMj-36" value="" style="endArrow=classic;html=1;rounded=0;entryX=1;entryY=0.5;entryDx=0;entryDy=0;" edge="1" parent="1" target="eMn49xgFyOWpqg5cdWTc-38">
          <mxGeometry width="50" height="50" relative="1" as="geometry">
            <mxPoint x="1135" y="62" as="sourcePoint" />
            <mxPoint x="949" y="130" as="targetPoint" />
          </mxGeometry>
        </mxCell>
        <mxCell id="eMn49xgFyOWpqg5cdWTc-39" value="Can book rooms in hotels" style="rounded=1;whiteSpace=wrap;html=1;" vertex="1" parent="1">
          <mxGeometry x="626" y="-18" width="311" height="43" as="geometry" />
        </mxCell>
        <mxCell id="eMn49xgFyOWpqg5cdWTc-40" value="Can pay for booked hotel rooms" style="rounded=1;whiteSpace=wrap;html=1;" vertex="1" parent="1">
          <mxGeometry x="628" y="-76" width="311" height="43" as="geometry" />
        </mxCell>
        <mxCell id="vUEyfl4skyFPWTMdxFMj-37" value="" style="endArrow=classic;html=1;rounded=0;entryX=0;entryY=0.5;entryDx=0;entryDy=0;" edge="1" parent="1" target="eMn49xgFyOWpqg5cdWTc-38">
          <mxGeometry width="50" height="50" relative="1" as="geometry">
            <mxPoint x="-2" y="65" as="sourcePoint" />
            <mxPoint x="162" y="-52" as="targetPoint" />
          </mxGeometry>
        </mxCell>
        <mxCell id="vUEyfl4skyFPWTMdxFMj-38" value="" style="endArrow=classic;html=1;rounded=0;entryX=0;entryY=0.5;entryDx=0;entryDy=0;" edge="1" parent="1" target="eMn49xgFyOWpqg5cdWTc-39">
          <mxGeometry width="50" height="50" relative="1" as="geometry">
            <mxPoint x="16" y="54" as="sourcePoint" />
            <mxPoint x="638" y="72" as="targetPoint" />
          </mxGeometry>
        </mxCell>
        <mxCell id="vUEyfl4skyFPWTMdxFMj-39" value="" style="endArrow=classic;html=1;rounded=0;entryX=0;entryY=0.5;entryDx=0;entryDy=0;" edge="1" parent="1" target="eMn49xgFyOWpqg5cdWTc-40">
          <mxGeometry width="50" height="50" relative="1" as="geometry">
            <mxPoint x="29" y="44" as="sourcePoint" />
            <mxPoint x="636" y="14" as="targetPoint" />
          </mxGeometry>
        </mxCell>
        <mxCell id="vUEyfl4skyFPWTMdxFMj-40" value="" style="endArrow=classic;html=1;rounded=0;entryX=1;entryY=0.75;entryDx=0;entryDy=0;" edge="1" parent="1" target="eMn49xgFyOWpqg5cdWTc-39">
          <mxGeometry width="50" height="50" relative="1" as="geometry">
            <mxPoint x="1133" y="36" as="sourcePoint" />
            <mxPoint x="949" y="71" as="targetPoint" />
          </mxGeometry>
        </mxCell>
        <mxCell id="eMn49xgFyOWpqg5cdWTc-41" value="Hotel Authority" style="shape=umlActor;verticalLabelPosition=bottom;verticalAlign=top;html=1;outlineConnect=0;" vertex="1" parent="1">
          <mxGeometry x="1162" y="-252" width="86" height="142" as="geometry" />
        </mxCell>
        <mxCell id="eMn49xgFyOWpqg5cdWTc-42" value="Can change booking status for hotel rooms" style="rounded=1;whiteSpace=wrap;html=1;" vertex="1" parent="1">
          <mxGeometry x="628" y="-134" width="311" height="43" as="geometry" />
        </mxCell>
        <mxCell id="vUEyfl4skyFPWTMdxFMj-41" value="" style="endArrow=classic;html=1;rounded=0;entryX=1;entryY=0.5;entryDx=0;entryDy=0;" edge="1" parent="1" target="eMn49xgFyOWpqg5cdWTc-40">
          <mxGeometry width="50" height="50" relative="1" as="geometry">
            <mxPoint x="1137" y="12" as="sourcePoint" />
            <mxPoint x="947" y="24" as="targetPoint" />
          </mxGeometry>
        </mxCell>
        <mxCell id="eMn49xgFyOWpqg5cdWTc-43" value="Get and manage payments" style="rounded=1;whiteSpace=wrap;html=1;" vertex="1" parent="1">
          <mxGeometry x="628" y="-192" width="311" height="43" as="geometry" />
        </mxCell>
        <mxCell id="vUEyfl4skyFPWTMdxFMj-42" value="" style="endArrow=classic;html=1;rounded=0;entryX=1;entryY=0.5;entryDx=0;entryDy=0;" edge="1" parent="1" target="eMn49xgFyOWpqg5cdWTc-42">
          <mxGeometry width="50" height="50" relative="1" as="geometry">
            <mxPoint x="1128" y="-129" as="sourcePoint" />
            <mxPoint x="1177" y="-228" as="targetPoint" />
          </mxGeometry>
        </mxCell>
        <mxCell id="eMn49xgFyOWpqg5cdWTc-44" value="Can see tourist history on their hotel" style="rounded=1;whiteSpace=wrap;html=1;" vertex="1" parent="1">
          <mxGeometry x="628" y="-250" width="311" height="43" as="geometry" />
        </mxCell>
        <mxCell id="vUEyfl4skyFPWTMdxFMj-43" value="" style="endArrow=classic;html=1;rounded=0;entryX=1;entryY=0.5;entryDx=0;entryDy=0;" edge="1" parent="1" target="eMn49xgFyOWpqg5cdWTc-43">
          <mxGeometry width="50" height="50" relative="1" as="geometry">
            <mxPoint x="1128" y="-159" as="sourcePoint" />
            <mxPoint x="949" y="-102" as="targetPoint" />
          </mxGeometry>
        </mxCell>
        <mxCell id="vUEyfl4skyFPWTMdxFMj-44" value="" style="endArrow=classic;html=1;rounded=0;entryX=1;entryY=0.5;entryDx=0;entryDy=0;" edge="1" parent="1" target="eMn49xgFyOWpqg5cdWTc-44">
          <mxGeometry width="50" height="50" relative="1" as="geometry">
            <mxPoint x="1135" y="-191" as="sourcePoint" />
            <mxPoint x="949" y="-160" as="targetPoint" />
          </mxGeometry>
        </mxCell>
        <mxCell id="eMn49xgFyOWpqg5cdWTc-45" value="" style="endArrow=classic;html=1;rounded=0;" edge="1" parent="1">
          <mxGeometry width="50" height="50" relative="1" as="geometry">
            <mxPoint x="1194" y="743" as="sourcePoint" />
            <mxPoint x="475" y="647" as="targetPoint" />
          </mxGeometry>
        </mxCell>
        <mxCell id="eMn49xgFyOWpqg5cdWTc-46" value="" style="endArrow=classic;html=1;rounded=0;" edge="1" parent="1">
          <mxGeometry width="50" height="50" relative="1" as="geometry">
            <mxPoint x="1190" y="739" as="sourcePoint" />
            <mxPoint x="474" y="601.5" as="targetPoint" />
          </mxGeometry>
        </mxCell>
        <mxCell id="eMn49xgFyOWpqg5cdWTc-48" value="&lt;font color=&quot;#3333ff&quot; style=&quot;font-size: 20px;&quot;&gt;210042106 - Adib Sakhawat&lt;br&gt;210042102 - Khalid Hasan&lt;br&gt;210042164 - Ekramul Alam Esham&lt;/font&gt;" style="text;html=1;strokeColor=none;fillColor=none;align=left;verticalAlign=middle;whiteSpace=wrap;rounded=0;" vertex="1" parent="1">
          <mxGeometry x="94" y="-303" width="354" height="30" as="geometry" />
        </mxCell>
      </root>
    </mxGraphModel>
  </diagram>
</mxfile>
